<svg viewBox="0 0 32 32" xml:space="preserve" xmlns="http://www.w3.org/2000/svg"><path d="M22 22h10v2H22zM18 22h2v2h-2zM13 28H8v-2h5a1 1 0 0 0 0-2H3c-1.654 0-3-1.346-3-3s1.346-3 3-3h1v2H3a1 1 0 0 0 0 2h10c1.654 0 3 1.346 3 3s-1.346 3-3 3z" fill="#87919d" class="fill-000000"></path><path d="M4 26h2v2H4zM0 13h2v2H0zM24 32h-3c-1.654 0-3-1.346-3-3s1.346-3 3-3h7v2h-7a1 1 0 0 0 0 2h3v2zM30 26h2v2h-2zM25 20h-7v-2h7a5 5 0 0 0 .636-9.958 1.002 1.002 0 0 1-.846-.75A6.985 6.985 0 0 0 18 2c-3.859 0-7 3.141-7 7a1 1 0 0 1-1 1c-2.206 0-4 1.794-4 4s1.794 4 4 4h2v2h-2c-3.309 0-6-2.691-6-6a6.01 6.01 0 0 1 5.047-5.925C9.512 3.546 13.35 0 18 0a8.983 8.983 0 0 1 8.547 6.173A7.008 7.008 0 0 1 32 13c0 3.859-3.141 7-7 7z" fill="#87919d" class="fill-000000"></path><path d="M14 18h2v2h-2z" fill="#87919d" class="fill-000000"></path></svg>