<?xml version="1.0" ?><svg xmlns="http://www.w3.org/2000/svg" viewBox="0 0 512 512"><defs><style>.cls-1{fill:#f9ed32;}</style></defs><title/><g id="sun"><circle class="cls-1" cx="256" cy="256" r="175"/><rect class="cls-1" x="246" width="20" height="60" rx="10"/><rect class="cls-1" x="86.194" y="66.194" width="20" height="60" rx="10" transform="translate(-39.845 96.194) rotate(-45)"/><rect class="cls-1" x="20" y="226" width="20" height="60" rx="10" transform="translate(-226 286) rotate(-90)"/><rect class="cls-1" x="86.194" y="385.806" width="20" height="60" rx="10" transform="translate(-129.806 777.845) rotate(-135)"/><rect class="cls-1" x="246" y="452" width="20" height="60" rx="10" transform="translate(512 964) rotate(180)"/><rect class="cls-1" x="405.806" y="385.806" width="20" height="60" rx="10" transform="translate(1003.845 415.806) rotate(135)"/><rect class="cls-1" x="472" y="226" width="20" height="60" rx="10" transform="translate(738 -226) rotate(90)"/><rect class="cls-1" x="405.806" y="66.194" width="20" height="60" rx="10" transform="translate(189.806 -265.845) rotate(45)"/></g></svg>